<?xml version="1.0" standalone="no"?>
<!DOCTYPE svg PUBLIC "-//W3C//DTD SVG 20010904//EN"
 "http://www.w3.org/TR/2001/REC-SVG-20010904/DTD/svg10.dtd">
<svg version="1.0" xmlns="http://www.w3.org/2000/svg"
 width="700.000000pt" height="700.000000pt" viewBox="0 0 700.000000 700.000000"
 preserveAspectRatio="xMidYMid meet">
<metadata>
Created by potrace 1.11, written by Peter Selinger 2001-2013
</metadata>
<g transform="translate(0.000000,700.000000) scale(0.100000,-0.100000)"
fill="#000000" stroke="none">
<path d="M3150 5772 c-67 -34 -250 -285 -360 -494 -64 -123 -130 -277 -130
-304 0 -40 282 -277 460 -387 104 -64 305 -158 430 -202 89 -31 288 -85 313
-85 4 0 7 57 7 126 l0 127 -64 86 c-208 280 -350 599 -421 947 -26 130 -39
156 -95 184 -48 25 -94 25 -140 2z"/>
<path d="M1827 5496 c-54 -20 -64 -31 -106 -120 -82 -173 -150 -393 -185 -597
-139 -814 199 -1598 944 -2190 52 -42 108 -84 124 -94 26 -17 27 -20 10 -27
-11 -4 -170 -44 -354 -88 -785 -187 -951 -229 -981 -246 -78 -46 -87 -135 -24
-232 55 -85 246 -267 354 -340 274 -184 655 -299 1015 -305 90 -2 107 1 156
24 35 16 168 120 360 280 l305 254 460 6 c423 5 468 8 555 28 316 72 588 222
790 438 177 190 290 404 353 668 20 87 21 116 24 893 l4 803 144 278 c80 153
145 283 145 290 0 10 -117 12 -567 9 -544 -4 -571 -5 -648 -26 -246 -67 -441
-244 -520 -473 l-30 -84 -3 -327 -3 -326 -57 5 c-219 20 -490 79 -681 149
-140 51 -380 172 -505 254 -362 237 -639 542 -836 922 -75 146 -99 170 -170
182 -20 3 -51 0 -73 -8z m3144 -879 c22 -15 39 -38 49 -65 31 -88 -32 -172
-130 -172 -63 0 -110 32 -130 88 -31 88 32 172 130 172 32 0 58 -7 81 -23z"/>
</g>
</svg>
